<?xml version="1.0" standalone="no"?>
<!DOCTYPE svg PUBLIC "-//W3C//DTD SVG 20010904//EN"
 "http://www.w3.org/TR/2001/REC-SVG-20010904/DTD/svg10.dtd">
<svg version="1.0" xmlns="http://www.w3.org/2000/svg"
 width="1024.000000pt" height="1024.000000pt" viewBox="0 0 1024.000000 1024.000000"
 preserveAspectRatio="xMidYMid meet">
<metadata>
Created by potrace 1.11, written by Peter Selinger 2001-2013
</metadata>
<g transform="translate(0.000000,1024.000000) scale(0.100000,-0.100000)"
fill="#000000" stroke="none">
<path d="M0 5120 l0 -5120 5120 0 5120 0 0 5120 0 5120 -5120 0 -5120 0 0
-5120z m2700 4156 c190 -62 335 -199 401 -379 23 -62 23 -64 27 -657 2 -415 0
-613 -8 -655 -42 -220 -229 -410 -452 -460 -64 -14 -149 -16 -663 -13 l-590 3
-67 26 c-101 39 -173 87 -238 155 -69 74 -111 146 -139 238 -20 66 -21 87 -21
665 0 664 -1 654 68 785 82 158 255 279 436 306 28 5 307 7 621 6 519 -2 575
-4 625 -20z m3015 9 c202 -42 362 -181 443 -383 l27 -67 3 -595 c2 -414 0
-613 -8 -655 -40 -211 -223 -404 -436 -459 -53 -14 -145 -16 -642 -16 -380 0
-599 4 -634 11 -76 16 -205 80 -265 134 -70 62 -144 175 -174 266 l-24 74 0
615 0 615 26 67 c80 204 243 350 439 392 97 21 1145 22 1245 1z m3185 -19
c180 -69 305 -194 368 -367 l27 -74 3 -599 c3 -666 4 -656 -65 -796 -69 -141
-218 -260 -383 -307 -60 -16 -113 -18 -645 -18 -532 0 -585 2 -645 18 -165 47
-314 166 -383 307 -69 140 -68 130 -65 796 l3 599 27 74 c46 125 135 237 243
307 44 28 161 74 220 88 11 2 290 3 620 3 l600 -2 75 -29z m-6188 -3069 c167
-49 312 -166 381 -307 68 -139 67 -131 67 -770 0 -638 1 -632 -66 -768 -66
-136 -187 -240 -344 -296 l-85 -31 -595 0 c-549 0 -600 1 -655 18 -221 68
-385 241 -430 453 -21 101 -21 1147 0 1248 43 201 207 382 407 445 78 25 181
29 713 27 481 -2 557 -4 607 -19z m3093 -10 c183 -65 317 -197 383 -378 l27
-74 3 -581 c3 -649 2 -667 -63 -799 -69 -138 -196 -248 -350 -302 l-80 -28
-571 -3 c-644 -3 -659 -2 -800 68 -133 65 -244 191 -294 334 -37 105 -41 189
-37 751 4 582 3 575 59 697 83 178 267 314 463 341 17 3 289 4 605 3 l575 -1
80 -28z m3075 10 c172 -51 306 -161 380 -309 70 -143 71 -156 68 -802 l-3
-571 -28 -80 c-69 -194 -212 -330 -412 -392 -55 -17 -105 -18 -645 -18 -459 0
-597 3 -640 14 -213 52 -389 226 -444 438 -23 88 -24 1185 -1 1281 56 236 265
422 509 451 39 5 316 8 616 7 471 -2 552 -5 600 -19z m-6175 -3082 c214 -54
384 -222 440 -435 22 -84 22 -1199 0 -1285 -52 -201 -207 -367 -398 -427 -71
-23 -77 -23 -687 -23 l-615 0 -65 23 c-180 65 -317 202 -382 382 l-23 65 0
615 0 615 25 75 c61 188 226 343 420 394 83 22 1199 23 1285 1z m3105 -13
c203 -73 352 -242 395 -447 22 -103 21 -1137 0 -1240 -42 -200 -186 -364 -393
-444 l-67 -26 -615 0 -615 0 -74 24 c-146 48 -275 157 -346 292 -64 122 -65
130 -65 778 0 649 0 644 68 776 50 98 156 201 255 250 131 65 119 64 787 62
l605 -2 65 -23z m3112 -3 c101 -39 173 -87 238 -155 69 -74 111 -146 139 -238
20 -66 21 -87 21 -665 0 -664 1 -654 -68 -785 -70 -134 -207 -244 -367 -293
-55 -17 -106 -18 -655 -18 -549 0 -600 1 -655 18 -193 60 -335 193 -403 378
l-27 74 -3 598 c-2 514 -1 607 13 660 53 213 217 381 426 437 70 18 106 19
674 17 l600 -2 67 -26z"/>
</g>
</svg>
